<svg xmlns="http://www.w3.org/2000/svg" width="16" height="16" viewBox="0 0 16 16">    <g fill="none" fill-rule="evenodd">        <path fill="#191919" fill-rule="nonzero" d="M14.16 10.525l-3-1a.5.5 0 0 0-.605.25l-.86 1.725c-2.5-.19-5-2.665-5.185-5.185l1.715-.86A.5.5 0 0 0 6.5 4.84l-1-3A.5.5 0 0 0 5 1.5H3a.5.5 0 0 0-.355.145l-1 1A.5.5 0 0 0 1.5 3c0 6.88 4.62 11.5 11.5 11.5a.5.5 0 0 0 .355-.145l1-1A.5.5 0 0 0 14.5 13v-2a.5.5 0 0 0-.34-.475z"/>        <path stroke="#FFF" stroke-opacity=".01" stroke-width=".1" d="M.05.05h15.9v15.9H.05z"/>    </g></svg>